<svg id="e7q9fLAcl8w1" xmlns="http://www.w3.org/2000/svg" xmlns:xlink="http://www.w3.org/1999/xlink" viewBox="0 0 50.093800 38" shape-rendering="geometricPrecision" text-rendering="geometricPrecision"><style><![CDATA[#e7q9fLAcl8w2_tr {animation: e7q9fLAcl8w2_tr__tr 2000ms linear infinite normal forwards}@keyframes e7q9fLAcl8w2_tr__tr { 0% {transform: translate(24.100001px,18.700000px) rotate(0deg)} 5% {transform: translate(24.100001px,18.700000px) rotate(0deg);animation-timing-function: cubic-bezier(0.165000,0.840000,0.440000,1)} 35% {transform: translate(24.100001px,18.700000px) rotate(9.554238deg);animation-timing-function: cubic-bezier(0.230000,1,0.320000,1)} 100% {transform: translate(24.100001px,18.700000px) rotate(-360deg)}}]]></style><g id="e7q9fLAcl8w2_tr" transform="translate(24.100001,18.700000) rotate(0)"><g id="e7q9fLAcl8w2" transform="scale(5.091046,5.091046) translate(-24.100001,-18.700000)"><g id="e7q9fLAcl8w3" clip-path="url(#e7q9fLAcl8w8)"><g id="e7q9fLAcl8w4" transform="matrix(0.09780529972661 0 0 0.09780529972661 21.74289272829860 16.87104115323233)"><path id="e7q9fLAcl8w5" d="M46.900000,14.800000L38.300000,2.800000C37.940044,2.337010,37.386454,2.066190,36.800000,2.066190C36.213546,2.066190,35.659956,2.337010,35.300000,2.800000L26.700000,14.800000C26.364242,15.192797,26.272156,15.738608,26.460457,16.219821C26.648758,16.701035,27.086823,17.039395,27.600000,17.100000L31.400000,17.100000C31.300000,25.100000,26.700000,31,23.400000,33C20.100000,35,21.900000,35.700000,23.900000,35.900000C40.800000,35.900000,41.900000,19.200000,42,17.100000L46,17.100000C46.513177,17.039395,46.951242,16.701035,47.139543,16.219821C47.327844,15.738608,47.235758,15.192797,46.900000,14.800000" fill="rgb(255,255,255)" stroke="none" stroke-width="1"/><path id="e7q9fLAcl8w6" d="M46.900000,14.800000L38.300000,2.800000C37.940044,2.337010,37.386454,2.066190,36.800000,2.066190C36.213546,2.066190,35.659956,2.337010,35.300000,2.800000L26.700000,14.800000C26.364242,15.192797,26.272156,15.738608,26.460457,16.219821C26.648758,16.701035,27.086823,17.039395,27.600000,17.100000L31.400000,17.100000C31.300000,25.100000,26.700000,31,23.400000,33C20.100000,35,21.900000,35.700000,23.900000,35.900000C40.800000,35.900000,41.900000,19.200000,42,17.100000L46,17.100000C46.513177,17.039395,46.951242,16.701035,47.139543,16.219821C47.327844,15.738608,47.235758,15.192797,46.900000,14.800000Z" transform="matrix(1 0 0 1 0 -0)" fill="none" stroke="rgb(51,51,51)" stroke-width="3" stroke-linejoin="round"/><path id="e7q9fLAcl8w7" d="M20.400000,20.300000L16.600000,20.300000C16.700000,12.300000,21.300000,6.400000,24.600000,4.400000C27.900000,2.400000,26.100000,1.700000,24.100000,1.500000C7.100000,1.600000,6.100000,18.300000,6,20.300000L2.200000,20.300000C1.686823,20.360605,1.248758,20.698965,1.060457,21.180179C0.872156,21.661392,0.964242,22.207203,1.300000,22.600000L9.900000,34.600000C10.259956,35.062990,10.813546,35.333810,11.400000,35.333810C11.986454,35.333810,12.540044,35.062990,12.900000,34.600000L21.500000,22.600000C21.835758,22.207203,21.927844,21.661392,21.739543,21.180179C21.551242,20.698965,21.113177,20.360605,20.600000,20.300000" transform="matrix(1 0 0 1 0 -0)" fill="rgb(228,11,32)" stroke="none" stroke-width="1"/></g><clipPath id="e7q9fLAcl8w8"><path id="e7q9fLAcl8w9" d="M0,0L50.100000,0L50.100000,38L0,38Z" fill="none" stroke="none" stroke-width="1"/></clipPath></g></g></g></svg>